<?xml version="1.0" standalone="no"?>
<!DOCTYPE svg PUBLIC "-//W3C//DTD SVG 20010904//EN"
 "http://www.w3.org/TR/2001/REC-SVG-20010904/DTD/svg10.dtd">
<svg version="1.0" xmlns="http://www.w3.org/2000/svg"
 width="300.000000pt" height="184.000000pt" viewBox="0 0 300.000000 184.000000"
 preserveAspectRatio="xMidYMid meet">
<metadata>
Created by potrace 1.10, written by Peter Selinger 2001-2011
</metadata>
<g transform="translate(0.000000,184.000000) scale(0.100000,-0.100000)"
fill="#000000" stroke="none">
<path d="M1437 1810 c-12 -12 -17 -32 -17 -69 0 -52 -1 -54 -45 -66 -5 -1 -14
-3 -19 -3 -5 0 -12 -6 -17 -14 -5 -7 -16 -13 -25 -13 -9 0 -28 -15 -42 -33
-21 -27 -22 -32 -7 -32 9 0 51 -16 92 -35 65 -31 77 -41 93 -78 l19 -42 0 46
c1 53 -10 66 -60 75 -19 3 -47 10 -62 16 l-28 11 22 23 c26 28 36 25 20 -5
-10 -18 -8 -21 11 -25 13 -2 41 -8 63 -13 l40 -8 0 -67 c0 -36 2 -65 4 -62 8
8 41 -29 41 -46 0 -27 -25 -43 -39 -26 -11 13 -17 13 -46 0 -19 -8 -56 -14
-83 -14 -40 0 -54 5 -76 26 -14 15 -26 31 -26 35 0 5 -4 9 -9 9 -12 0 -8 -27
6 -41 16 -16 -23 -125 -50 -144 -21 -15 -21 -15 -1 -15 31 0 54 32 64 87 7 44
8 45 9 12 2 -71 -32 -119 -84 -119 -18 0 -18 0 0 -43 8 -20 15 -47 14 -59 -1
-15 -6 -8 -15 21 -17 55 -34 75 -34 40 0 -13 7 -35 16 -47 8 -12 12 -22 8 -22
-3 0 -1 -7 6 -15 10 -12 8 -21 -10 -50 -21 -33 -21 -37 -6 -60 9 -14 22 -25
29 -25 6 -1 22 -16 34 -35 19 -30 20 -35 6 -54 -8 -12 -19 -18 -25 -15 -7 4
-8 2 -4 -5 4 -6 12 -9 17 -6 5 4 9 -1 9 -9 0 -9 -7 -16 -15 -16 -8 0 -15 4
-15 9 0 11 -31 24 -39 16 -3 -3 1 -10 9 -15 13 -8 13 -10 -1 -10 -20 0 -42 24
-32 34 4 4 0 4 -10 0 -20 -7 -22 -21 -5 -26 9 -3 9 -6 -1 -12 -8 -5 -14 -1
-18 13 -3 11 -10 18 -15 14 -9 -5 -8 48 4 135 1 7 8 10 16 7 12 -4 11 -1 -2
17 -25 35 -76 141 -76 158 1 8 14 -12 29 -45 32 -67 81 -137 81 -114 0 8 -13
37 -29 66 -19 34 -25 54 -17 56 6 3 -5 20 -26 39 -20 19 -39 45 -41 59 -7 35
-4 68 6 62 5 -3 6 -14 3 -26 -7 -27 15 -67 53 -94 43 -32 45 -29 11 20 -35 48
-45 100 -24 118 8 6 14 22 14 35 0 28 15 32 28 8 7 -12 11 -4 15 32 6 57 -6
79 -34 64 -17 -9 -18 -8 -10 13 28 73 58 121 85 138 17 10 36 19 41 19 6 0 -4
-9 -22 -20 -34 -21 -62 -60 -40 -56 6 1 23 9 37 18 14 9 42 21 62 28 21 6 40
15 43 19 8 13 -98 21 -137 11 -39 -11 -88 -45 -88 -62 0 -6 11 1 25 16 13 14
27 26 31 26 4 0 -5 -12 -20 -26 -14 -15 -26 -34 -26 -43 0 -14 -2 -14 -10 -1
-6 10 -9 5 -8 -18 1 -22 -7 -39 -25 -56 -32 -30 -34 -49 -8 -84 12 -19 16 -33
10 -47 -7 -18 -8 -18 -8 5 -1 14 -6 32 -11 40 -8 11 -10 4 -8 -25 2 -22 -1
-83 -6 -136 -8 -94 -7 -97 22 -165 28 -64 29 -70 15 -97 -8 -16 -13 -38 -10
-48 3 -11 -1 -20 -12 -22 -14 -4 -14 -5 2 -6 38 -2 14 -21 -27 -21 -49 0 -173
-15 -253 -31 -43 -8 -53 -14 -53 -30 0 -19 1 -19 17 -4 12 13 27 15 62 10 33
-4 42 -3 31 5 -11 7 -1 8 35 4 37 -4 46 -3 35 5 -11 8 0 9 39 4 39 -4 52 -3
47 5 -5 9 6 10 40 5 34 -4 45 -3 40 5 -4 7 -2 12 3 12 6 0 11 -9 11 -19 0 -19
6 -20 98 -16 75 2 96 6 94 17 -3 10 -1 10 8 2 7 -7 28 -10 50 -7 63 9 69 2 58
-54 -6 -26 -11 -57 -12 -68 -3 -28 -46 -50 -80 -41 -15 4 -24 11 -21 16 3 6 1
10 -4 10 -13 0 -14 32 -2 45 5 6 12 21 15 35 7 24 6 24 -18 -5 -46 -54 -28
-127 31 -129 l30 -1 -28 -42 c-16 -22 -41 -50 -56 -62 -33 -24 -14 -29 22 -5
22 14 24 14 35 -6 28 -52 -15 -126 -102 -179 -21 -12 -38 -25 -38 -27 0 -3 5
-2 12 2 6 4 4 -3 -5 -17 -9 -13 -17 -34 -17 -46 0 -13 -5 -23 -11 -23 -5 0 -7
-5 -4 -11 4 -6 13 -8 21 -5 8 3 14 1 14 -4 0 -14 -37 -13 -46 1 -3 6 -25 20
-48 31 -37 18 -28 20 24 7 10 -3 14 2 12 16 -8 55 -9 81 -5 93 7 18 23 15 23
-5 0 -42 12 2 19 73 l8 79 2 -78 c1 -70 3 -77 16 -63 8 8 15 31 15 51 0 20 5
45 10 56 7 13 7 19 0 19 -5 0 -10 -5 -10 -11 0 -19 -17 0 -35 38 l-18 38 -19
-65 c-10 -36 -18 -77 -18 -92 0 -15 -4 -30 -10 -33 -6 -4 -8 7 -4 27 15 88 26
133 38 162 8 17 18 42 22 56 6 24 6 24 -17 9 -13 -9 -34 -31 -47 -49 -21 -31
-22 -43 -20 -152 2 -65 6 -118 10 -118 11 0 38 -31 38 -43 -1 -7 -6 -5 -13 4
-28 36 -96 50 -84 16 4 -13 -61 -97 -105 -135 -16 -13 -28 -34 -28 -47 0 -20
4 -23 40 -22 29 2 36 5 27 12 -7 6 -12 15 -12 21 0 14 87 104 101 104 6 0 28
-15 50 -34 l39 -35 -62 -28 c-85 -38 -81 -58 7 -33 19 5 57 11 85 12 27 1 45
3 38 5 -8 3 -9 13 -2 36 12 44 11 91 -3 122 -8 19 -9 28 0 37 8 8 9 5 5 -13
-4 -18 0 -15 14 11 13 23 31 37 51 42 40 11 102 72 102 101 0 12 -9 55 -20 95
-11 40 -18 78 -15 83 4 5 24 18 46 29 41 21 112 87 142 130 l17 25 17 -25 c29
-43 101 -109 142 -129 21 -11 41 -27 44 -35 3 -7 -3 -42 -14 -76 -28 -90 -25
-116 15 -156 19 -19 48 -37 66 -40 45 -10 65 -58 65 -159 l0 -81 39 -1 c21 -1
62 -7 91 -14 78 -17 88 -5 21 25 -65 29 -70 30 -61 16 8 -13 3 -13 -36 5 -30
14 -31 15 -6 10 19 -4 27 -1 27 8 0 20 68 66 90 60 27 -7 103 -91 97 -107 -4
-9 3 -16 16 -20 34 -9 37 -8 37 15 0 12 -29 52 -70 96 -42 45 -67 80 -63 88
13 36 -55 24 -84 -14 -7 -9 -12 -11 -13 -4 0 6 11 20 24 30 23 18 23 23 22
146 l-1 126 -41 43 c-47 49 -68 84 -59 99 4 5 10 31 14 57 6 42 9 47 31 44 14
-1 29 4 35 11 13 17 109 32 99 15 -5 -8 8 -9 47 -5 39 5 50 4 39 -4 -11 -8 -2
-9 33 -5 31 4 46 2 42 -4 -4 -7 7 -8 33 -4 29 4 43 2 55 -11 16 -15 17 -15 17
4 0 22 -39 33 -195 51 -146 17 -163 21 -140 30 11 5 14 9 8 9 -7 1 -13 12 -13
26 0 13 -5 35 -11 48 -9 21 -6 37 16 93 26 64 27 72 19 168 -5 56 -7 108 -6
116 2 8 4 35 4 59 1 36 -3 48 -25 67 -19 16 -27 33 -27 56 0 62 -38 94 -139
118 -40 9 -62 22 -84 46 -18 21 -46 39 -76 48 -44 12 -46 15 -54 57 -17 94
-16 93 -77 94 -39 1 -60 -3 -73 -15z m80 -57 c2 -6 -8 -13 -22 -15 -27 -6 -32
1 -13 20 14 14 30 11 35 -5z m63 -58 c0 -48 -37 -85 -83 -85 -19 0 -40 7 -47
16 -17 19 -22 64 -8 64 6 0 8 -11 5 -26 -3 -20 1 -27 20 -35 13 -5 26 -9 29
-9 2 0 4 25 4 55 l0 55 40 0 c39 0 40 -1 40 -35z m-155 -44 c-2 -5 -9 -21 -15
-36 -15 -40 -24 -23 -10 19 6 20 16 34 21 30 5 -3 7 -9 4 -13z m229 5 c31 -13
66 -49 66 -68 0 -16 -45 -7 -67 14 -23 22 -33 12 -11 -10 9 -9 3 -12 -29 -12
-23 0 -48 -3 -57 -6 -12 -5 -11 3 7 34 l22 40 12 -26 c14 -33 16 -27 4 16 -11
37 -1 41 53 18z m140 -91 c48 -23 78 -68 74 -113 -3 -35 -5 -37 -36 -35 -41 1
-58 15 -66 54 -6 33 -42 89 -56 89 -5 0 2 -16 15 -36 58 -86 10 -153 -99 -139
-28 4 -63 14 -78 21 -26 13 -28 19 -28 73 0 77 11 86 112 87 44 1 82 4 85 8
11 11 44 7 77 -9z m111 -47 c27 -32 31 -58 15 -89 -16 -30 -25 -23 -25 20 0
26 -9 49 -27 74 -25 31 -25 34 -8 30 11 -3 31 -19 45 -35z m-160 -138 c-8 -16
-24 -34 -34 -40 -29 -15 -95 -12 -141 6 -54 22 -45 29 11 8 63 -22 123 -12
151 27 28 37 33 37 13 -1z m230 -2 c8 -25 -5 -123 -14 -111 -12 13 -33 122
-26 132 9 15 33 2 40 -21z m-880 -9 c-12 -12 -19 -36 -20 -59 0 -21 -3 -36 -7
-33 -16 9 -8 73 12 93 26 26 38 26 15 -1z m729 1 c24 -9 26 -14 26 -75 0 -82
-11 -105 -50 -105 -37 0 -61 33 -67 94 -5 38 -2 48 20 70 29 29 35 30 71 16z
m100 -16 c13 -34 5 -61 -30 -95 l-37 -34 6 58 c6 59 19 87 42 87 7 0 16 -7 19
-16z m-456 -36 c7 -7 12 -26 11 -42 l-1 -31 -8 29 c-11 36 -27 47 -60 40 -20
-4 -22 -3 -10 5 20 14 53 14 68 -1z m156 -3 c55 -12 86 -104 65 -191 -7 -27
-17 -55 -22 -62 -16 -20 -58 -39 -104 -46 -42 -6 -43 -5 -43 21 0 27 2 28 53
27 49 0 66 8 67 31 0 5 -5 4 -12 -3 -7 -7 -34 -12 -60 -12 -42 0 -48 3 -54 25
-11 44 1 55 55 55 40 0 53 -4 65 -22 l16 -22 0 30 0 30 -67 1 c-67 1 -68 1
-68 29 0 39 40 51 101 31 24 -8 44 -12 44 -8 -1 19 -22 27 -77 26 -61 0 -63 1
-63 26 0 36 19 52 55 44 17 -3 38 -8 49 -10z m-285 -42 c-21 -41 -26 -143 -9
-187 5 -14 6 -26 1 -26 -13 0 -22 28 -28 96 -4 48 -1 70 15 107 12 26 25 47
30 47 6 0 1 -17 -9 -37z m75 15 c11 -11 9 -15 -13 -25 -26 -11 -26 -11 11 -12
58 -1 68 -9 66 -50 -1 -35 -1 -35 -5 -5 -4 32 -23 44 -68 43 -19 0 -19 -1 3
-16 30 -21 28 -30 -10 -47 l-33 -15 32 6 c51 8 80 -3 86 -34 3 -15 2 -34 -1
-42 -5 -11 -9 -4 -12 19 -5 34 -7 35 -50 37 l-45 3 33 -15 c28 -12 45 -44 25
-46 -58 -6 -72 -22 -38 -45 18 -12 23 -19 14 -25 -18 -11 73 -22 129 -16 34 4
41 2 28 -5 -10 -6 -51 -8 -92 -6 -84 4 -74 -11 15 -23 39 -6 66 -4 95 7 77 28
75 29 116 -11 39 -38 39 -38 22 -67 l-16 -28 -191 -1 c-104 0 -207 -2 -227 -4
-30 -2 -41 2 -52 20 -14 21 -14 25 1 37 10 7 14 8 10 1 -4 -6 -2 -22 3 -35 10
-22 10 -22 5 4 -4 20 1 33 17 48 12 11 25 20 28 20 4 0 15 17 25 38 10 20 21
44 26 53 4 9 3 48 -3 86 -6 39 -7 79 -3 89 4 11 7 25 6 33 -1 7 2 10 8 6 6 -3
11 0 11 9 0 12 9 20 28 25 2 1 9 -5 16 -11z m547 -55 c16 -44 3 -69 -76 -147
l-75 -74 0 32 c0 57 30 136 67 177 42 46 69 50 84 12z m-679 -105 c20 -14 25
-50 14 -88 -6 -19 -5 -21 3 -10 9 13 11 13 11 -2 0 -21 -39 -60 -52 -52 -5 4
-22 -6 -37 -21 -28 -26 -28 -26 -34 -5 -3 14 3 30 19 47 14 15 22 33 19 40 -2
8 -1 12 4 9 5 -3 12 1 15 10 9 25 7 64 -4 64 -5 0 -10 9 -10 20 0 22 12 19 52
-12z m473 -25 c0 -45 5 -66 23 -90 14 -20 22 -44 20 -59 -3 -26 -3 -26 -48 17
-24 24 -36 33 -25 20 l20 -24 -22 14 c-22 13 -24 24 -24 114 1 25 31 64 51 65
3 0 5 -26 5 -57z m225 -63 c-10 -23 -10 -22 -5 9 3 18 6 52 7 75 2 38 2 37 5
-9 2 -28 -1 -62 -7 -75z m-181 21 c1 -50 0 -53 -14 -35 -22 29 -29 79 -14 105
12 23 12 23 20 4 4 -11 8 -44 8 -74z m148 -83 c-11 -56 -11 -68 1 -87 20 -30
5 -124 -20 -129 -11 -2 -18 3 -18 12 0 10 -8 16 -22 15 -18 -1 -19 -2 -5 -6
20 -5 13 -23 -9 -23 -8 0 -14 9 -14 20 0 14 -5 18 -17 13 -11 -4 -12 -8 -5
-11 20 -6 13 -22 -9 -22 -16 0 -20 5 -16 19 4 15 0 19 -15 16 -12 -3 -23 -7
-27 -11 -3 -4 2 -4 12 -1 14 5 18 3 15 -11 -6 -29 -33 -20 -36 13 -2 17 -7 34
-11 38 -17 17 5 72 36 92 17 11 34 27 37 35 3 8 9 22 13 30 5 13 4 13 -10 1
-33 -26 -16 5 29 57 70 81 86 66 34 -33 -17 -32 -29 -60 -26 -62 7 -7 75 108
83 141 l8 31 3 -35 c2 -20 -3 -65 -11 -102z m-465 77 c4 -5 8 -17 8 -25 -1
-12 -3 -12 -14 3 -7 9 -24 17 -37 18 -13 0 -33 4 -44 9 -14 6 -6 8 30 7 28 -1
53 -6 57 -12z m255 -220 c0 -13 -34 -15 -246 -15 -160 0 -242 3 -235 10 5 5
105 11 234 13 124 1 230 3 236 5 6 1 11 -5 11 -13z m-131 -33 c-2 -4 -87 -8
-188 -8 -119 0 -159 2 -113 6 104 10 307 11 301 2z m146 -29 c3 -31 35 -44 49
-21 6 9 9 3 9 -18 0 -44 -9 -47 -37 -14 -13 17 -39 40 -56 52 -24 16 -19 8 21
-35 52 -56 61 -81 42 -118 -14 -25 -60 -25 -94 2 -24 19 -26 26 -26 100 l0 79
44 0 c41 0 45 -2 48 -27z m-105 -59 c1 -80 -3 -82 -36 -19 -26 48 -27 71 -3
84 33 20 38 12 39 -65z m-237 36 c0 -23 -34 -95 -50 -105 -14 -9 -13 -5 10 40
11 22 20 50 20 62 0 13 5 23 10 23 6 0 10 -9 10 -20z m456 -42 c-8 -49 -13
-58 -31 -58 -9 0 -13 14 -12 50 2 46 4 50 26 50 22 0 23 -3 17 -42z m-433 -40
c-47 -49 -71 -55 -28 -6 22 24 44 43 48 40 5 -2 -4 -18 -20 -34z m162 -6 c21
-23 36 -42 32 -42 -15 0 -87 73 -81 82 3 5 7 8 8 6 0 -2 19 -22 41 -46z m274
-83 c6 -18 11 -53 11 -78 0 -30 3 -41 9 -32 6 9 16 -18 31 -84 22 -95 22 -99
4 -112 -31 -23 -39 -9 -44 78 l-5 84 -9 -60 c-8 -55 -9 -58 -17 -30 -5 16 -10
47 -12 68 -3 30 -10 43 -29 53 -23 12 -78 75 -78 88 0 3 8 6 19 6 10 0 30 -17
45 -40 31 -48 54 -54 26 -7 -23 36 -26 67 -8 85 22 22 46 13 57 -19z m76 -94
c12 -31 9 -115 -5 -115 -4 0 -10 20 -13 45 -4 25 -13 59 -22 75 -8 16 -15 37
-15 46 0 15 2 15 21 -2 12 -10 27 -32 34 -49z m-871 24 c-10 -11 -21 -41 -25
-67 -6 -47 -6 -47 -8 -8 -1 37 34 114 47 102 3 -3 -3 -15 -14 -27z m690 -40
c57 -49 63 -149 10 -149 -28 0 -65 16 -76 34 -18 27 1 146 23 146 4 0 24 -14
43 -31z m-450 -97 c-6 -31 -63 -92 -86 -92 -6 0 4 10 23 23 22 14 39 38 49 64
16 49 23 50 14 5z m556 -117 c0 -3 -11 -5 -25 -5 -26 0 -29 9 -19 48 6 23 7
22 25 -8 11 -17 19 -33 19 -35z m43 -56 c4 -16 10 -20 24 -14 10 4 29 9 43 11
19 3 17 1 -8 -9 -18 -7 -37 -19 -42 -27 -5 -8 -10 -11 -10 -5 0 5 -5 4 -12 -3
-14 -14 -48 -16 -48 -2 0 5 6 7 14 4 8 -3 17 -1 21 5 3 6 0 11 -7 11 -8 0 -15
11 -16 25 -2 32 33 35 41 4z m-857 -50 c32 -19 72 -59 60 -59 -4 0 -28 16 -53
35 -25 19 -52 35 -59 35 -7 0 -16 5 -20 11 -9 15 31 3 72 -22z m959 21 c-3 -5
-12 -10 -19 -10 -7 0 -34 -16 -59 -35 -47 -36 -68 -45 -48 -22 6 8 9 17 6 20
-3 4 -2 5 1 2 4 -2 19 4 34 15 44 31 97 50 85 30z"/>
<path d="M1144 1401 c14 -15 66 -36 66 -25 0 4 -67 44 -75 44 -5 0 0 -9 9 -19z"/>
<path d="M1265 1393 c11 -20 33 -37 52 -44 38 -12 102 -4 130 16 16 12 10 13
-42 8 -61 -5 -90 2 -135 34 l-24 18 19 -32z"/>
<path d="M1145 1339 c-10 -44 -1 -45 23 -4 20 34 21 35 2 35 -12 0 -21 -10
-25 -31z"/>
<path d="M545 1083 c-16 -2 -136 -24 -265 -49 -188 -35 -238 -48 -251 -64 -17
-20 -25 -111 -22 -248 2 -70 38 -201 84 -300 33 -72 77 -122 89 -103 4 7 30
14 58 14 27 1 48 5 45 10 -4 6 16 9 80 11 12 1 24 4 27 8 3 3 28 8 55 10 28 2
53 7 56 11 3 4 28 9 55 10 27 1 52 6 55 11 4 5 32 9 63 9 54 0 58 2 73 31 19
36 29 160 19 240 -12 93 -23 63 -22 -57 1 -118 -11 -167 -42 -167 -12 0 -12 3
-2 16 20 23 29 100 23 182 -5 60 -8 70 -20 61 -11 -10 -16 -6 -26 20 -10 28
-14 31 -44 25 -45 -9 -42 10 5 24 l37 11 -37 -5 c-30 -4 -37 -2 -32 10 6 17
57 26 78 14 20 -11 20 -12 -3 54 -24 71 -45 111 -75 143 l-25 26 -11 -22 c-7
-12 -16 -54 -20 -93 -6 -62 -8 -65 -10 -26 -2 42 -3 43 -10 15 l-8 -30 0 35
c0 37 15 95 18 70 1 -8 6 0 11 17 12 40 41 58 69 43 11 -6 20 -16 20 -22 0 -7
-5 -6 -15 2 -9 7 -17 11 -19 9 -2 -2 8 -13 22 -23 14 -11 22 -13 17 -6 -6 9
-4 11 4 6 7 -5 10 -10 7 -13 -3 -3 3 -22 13 -42 22 -44 52 -132 54 -160 1 -12
8 -21 18 -21 14 0 12 13 -16 98 -37 112 -53 146 -89 185 -25 27 -31 28 -91 20z
m4 -37 c-9 -19 -22 -26 -60 -31 l-49 -7 0 -64 c0 -41 -4 -64 -11 -64 -8 0 -10
18 -5 61 l7 61 -43 -7 c-24 -4 -45 -9 -48 -12 -2 -2 -6 -35 -8 -73 l-4 -68 38
8 c22 5 55 11 74 15 19 3 47 8 61 11 26 5 27 3 34 -48 12 -94 57 -248 96 -325
20 -40 30 -68 21 -61 -22 18 -77 142 -92 207 l-13 53 -39 -5 c-22 -3 -42 -7
-44 -10 -10 -9 47 -165 80 -220 l35 -58 -28 23 c-16 13 -28 25 -28 28 1 3 -13
41 -30 85 -17 44 -34 95 -38 112 -5 27 -10 32 -28 28 -12 -3 -55 -12 -95 -19
-40 -8 -76 -17 -79 -20 -10 -10 48 -173 79 -222 16 -25 27 -49 24 -51 -6 -7
-66 87 -66 103 0 7 -6 19 -12 26 -7 7 -13 18 -13 23 0 6 -6 33 -12 60 -7 28
-17 91 -24 140 -7 50 -14 84 -16 77 -3 -7 0 -42 7 -79 6 -36 7 -69 3 -73 -8
-7 -185 -42 -190 -37 -7 8 -25 148 -20 160 3 8 26 18 51 21 l46 7 -5 37 c-3
20 -1 51 4 67 8 26 9 22 10 -32 1 -53 4 -63 19 -63 18 0 174 29 178 33 1 1 4
32 6 69 l4 67 -51 -2 c-40 -2 -51 -5 -48 -17 2 -8 -1 -42 -6 -75 l-10 -60 3
68 c2 42 0 67 -7 67 -6 0 -48 -7 -95 -16 -46 -8 -86 -13 -89 -11 -11 11 19 47
40 47 12 0 32 3 45 6 19 5 21 3 16 -12 -5 -16 -4 -16 9 2 11 14 33 24 64 28
26 4 57 9 68 11 11 3 36 7 55 9 19 3 53 10 75 15 54 14 55 14 48 -6 -5 -16 -4
-16 9 0 8 10 30 22 48 27 59 13 61 13 49 -14z m-39 -88 c0 -19 -21 -48 -34
-48 -22 0 -28 31 -10 51 16 17 44 16 44 -3z m109 -24 c28 -47 26 -68 -5 -89
-34 -22 -44 -9 -44 61 0 75 16 85 49 28z m-209 5 c0 -22 -21 -49 -39 -49 -22
0 -34 33 -18 49 14 14 57 14 57 0z m-115 -35 c0 -24 -4 -29 -25 -29 -31 0 -40
33 -14 52 26 19 39 11 39 -23z m-95 -15 c0 -12 -30 -39 -45 -39 -7 0 -16 8
-20 17 -9 25 32 58 51 42 8 -6 14 -15 14 -20z m-112 -17 c4 -25 -34 -50 -51
-33 -7 7 -5 18 7 36 20 30 40 29 44 -3z m532 -142 c12 -8 13 -13 3 -29 -14
-23 -2 -37 37 -43 23 -3 25 -7 28 -65 3 -61 -9 -103 -28 -103 -5 0 -19 18 -30
40 -11 22 -18 40 -16 40 3 0 -2 19 -12 43 -9 23 -17 51 -16 62 4 72 5 74 34
55z m87 -36 c-10 -11 -77 -22 -82 -14 -3 5 3 11 12 13 27 7 77 8 70 1z m-310
-147 c2 7 0 20 -5 30 -17 36 -9 58 24 61 29 3 33 0 47 -42 8 -24 13 -47 9 -50
-3 -3 0 -6 7 -6 7 0 10 -4 7 -8 -3 -5 3 -22 12 -38 24 -40 22 -68 -4 -72 -25
-4 -64 39 -64 69 0 11 -5 19 -11 19 -6 0 -8 7 -4 18 5 13 3 14 -6 5 -9 -9 -3
-27 25 -80 l36 -68 -30 35 c-29 33 -31 34 -28 10 2 -20 -2 -26 -22 -28 -19 -2
-32 5 -49 29 -13 18 -17 29 -10 25 8 -4 6 -1 -3 6 -9 8 -19 25 -22 39 -2 13
-10 39 -16 57 -15 41 -7 62 24 62 19 0 27 -7 32 -27 4 -15 13 -38 20 -52 8
-14 14 -31 14 -38 0 -6 4 -14 9 -18 6 -3 -1 27 -15 66 -13 40 -24 82 -23 93 0
12 10 -8 21 -44 12 -36 23 -60 25 -53z m140 101 c10 -12 31 -70 34 -93 1 -5
12 -26 23 -45 28 -45 27 -65 -2 -65 -24 0 -37 18 -66 85 -21 52 -30 83 -27 99
1 8 -2 10 -11 5 -10 -6 -10 -4 1 9 16 20 35 22 48 5z m-362 -123 c14 -44 40
-102 56 -130 l30 -50 -30 34 c-33 37 -75 134 -87 197 -10 57 0 40 31 -51z m63
69 c-4 -3 0 -20 7 -39 8 -18 12 -35 9 -37 -2 -3 2 -11 11 -18 8 -7 15 -20 15
-29 0 -9 7 -25 15 -35 8 -11 15 -27 15 -37 0 -15 -5 -16 -56 -10 -11 1 -63
105 -69 138 -2 10 -4 18 -5 18 -5 0 -8 40 -4 47 3 4 19 8 36 8 17 0 29 -3 26
-6z m-111 -26 c4 -7 8 -15 9 -18 2 -10 17 -46 42 -100 29 -63 31 -73 18 -82
-16 -11 -34 3 -59 45 -22 37 -57 136 -57 159 0 13 38 9 47 -4z"/>
<path d="M427 800 c3 -30 10 -66 14 -80 5 -15 6 -1 2 35 -3 33 -9 69 -14 80
-5 12 -6 -2 -2 -35z"/>
<path d="M325 766 c3 -38 9 -74 15 -80 7 -7 9 -1 5 19 -4 17 -10 53 -15 80 -9
47 -9 46 -5 -19z"/>
<path d="M107 783 c-6 -9 11 -125 19 -133 6 -5 -6 132 -11 138 -2 2 -5 0 -8
-5z"/>
<path d="M2364 1063 c-36 -39 -52 -72 -89 -185 -29 -87 -30 -98 -15 -98 13 0
19 11 22 38 3 21 18 67 32 102 15 36 28 70 30 77 1 7 6 16 11 20 4 5 4 1 0 -7
-5 -10 -1 -8 13 4 25 21 31 36 7 16 -10 -8 -15 -9 -15 -2 0 6 9 16 20 22 28
15 57 -3 69 -43 5 -17 10 -25 11 -17 3 26 18 -33 18 -70 l-1 -35 -7 35 c-7 34
-7 34 -10 -15 -3 -48 -3 -48 -11 23 -5 40 -13 82 -19 93 -11 20 -12 20 -36 -6
-30 -32 -51 -72 -75 -143 -23 -66 -23 -65 -3 -54 21 12 72 3 78 -14 5 -12 -2
-14 -32 -10 l-37 5 38 -11 c46 -14 49 -33 4 -24 -29 5 -34 3 -44 -24 -7 -20
-16 -28 -26 -25 -32 13 -29 -202 4 -241 12 -14 11 -16 -6 -13 -32 7 -47 79
-41 187 7 101 -8 129 -20 36 -10 -80 0 -204 19 -240 15 -29 19 -31 73 -31 31
0 59 -4 63 -9 3 -5 27 -10 54 -11 27 -1 54 -9 63 -18 8 -8 21 -15 27 -15 7 0
6 4 -3 11 -11 7 -3 8 30 3 25 -3 47 -9 50 -13 3 -3 15 -6 28 -7 71 -2 83 -4
76 -16 -5 -8 -2 -9 10 -5 10 4 36 4 59 0 33 -5 37 -8 22 -14 -18 -7 -18 -8 3
-8 14 -1 35 11 52 29 27 29 90 164 90 193 0 7 3 17 7 21 4 3 8 12 10 19 28
115 33 149 28 202 -3 33 -6 86 -6 118 -1 92 1 91 -269 141 -341 64 -325 63
-356 29z m139 -3 c9 0 27 -10 39 -22 17 -17 20 -18 15 -4 -6 15 -3 17 15 12
13 -3 31 -6 40 -6 10 0 27 -10 38 -22 17 -18 20 -19 14 -5 -5 15 -3 17 17 12
27 -6 54 -11 122 -21 31 -4 53 -14 64 -28 13 -18 14 -18 9 -2 -5 15 -3 17 16
12 13 -3 33 -6 45 -6 21 0 51 -36 40 -47 -3 -2 -43 3 -89 11 -47 9 -89 16 -95
16 -7 0 -9 -25 -7 -67 l3 -68 -9 65 c-6 36 -8 70 -6 75 2 6 -19 11 -48 12
l-51 2 3 -68 4 -69 81 -16 c122 -24 117 -26 118 47 1 57 2 59 10 27 5 -19 7
-49 4 -67 -6 -31 -5 -32 40 -39 26 -3 49 -13 52 -21 5 -13 -13 -153 -21 -160
-2 -3 -133 20 -183 32 -17 4 -23 1 -23 -12 0 -32 -57 -183 -85 -224 -37 -56
-43 -42 -7 15 31 49 89 212 79 222 -3 3 -39 12 -79 20 -40 7 -82 16 -94 19
-18 4 -23 -3 -38 -58 -21 -77 -81 -203 -100 -210 -7 -3 2 20 21 51 32 54 89
210 79 219 -2 3 -22 7 -44 10 l-39 5 -17 -67 c-18 -74 -65 -173 -91 -195 -9
-8 -1 15 18 51 42 76 82 206 98 313 11 76 12 77 38 72 14 -3 42 -8 61 -11 19
-4 52 -10 74 -15 l38 -8 -4 68 c-2 38 -6 71 -8 73 -3 3 -24 8 -48 12 l-43 7 7
-61 c5 -43 3 -61 -5 -61 -7 0 -11 23 -11 64 l0 64 -49 7 c-39 5 -51 12 -60 32
-11 24 -10 25 11 19 13 -3 31 -6 41 -6z m35 -95 c11 -9 9 -47 -4 -52 -21 -8
-44 15 -44 44 0 21 3 23 23 17 12 -3 23 -8 25 -9z m-110 -35 c4 -39 -6 -100
-16 -100 -4 0 -18 9 -32 19 -23 19 -24 21 -11 57 25 70 54 82 59 24z m203 20
c26 -15 26 -60 -1 -60 -22 0 -44 34 -36 56 6 17 11 17 37 4z m113 -26 c20 -19
21 -54 2 -54 -29 0 -46 13 -46 34 0 38 18 46 44 20z m119 -40 c4 -24 -22 -42
-43 -29 -11 7 -14 48 -4 57 12 13 42 -5 47 -28z m85 4 c19 -19 15 -60 -4 -56
-23 4 -39 32 -31 52 8 19 19 20 35 4z m-535 -175 c5 -29 -13 -116 -33 -152 -6
-12 -8 -21 -5 -21 4 0 -3 -14 -16 -31 -31 -43 -43 -25 -44 68 l0 77 33 7 c43
9 49 16 33 41 -11 17 -11 22 1 29 21 14 25 11 31 -18z m-56 -19 c37 -10 16
-23 -23 -14 -19 5 -38 11 -41 14 -8 8 35 7 64 0z m149 -49 c3 -8 0 -31 -7 -52
-7 -21 -14 -44 -15 -51 -1 -8 -10 -22 -18 -31 -9 -10 -13 -21 -10 -24 4 -4 -1
-9 -10 -13 -9 -3 -13 -10 -10 -15 7 -12 -22 -23 -42 -15 -14 5 -14 10 5 42 12
19 15 32 9 28 -10 -6 -10 -4 -2 7 6 8 21 42 34 77 17 46 27 62 42 62 10 0 21
-7 24 -15z m124 -83 c-23 -70 -59 -140 -83 -161 -8 -6 5 27 28 74 24 47 49
109 56 138 7 28 15 44 17 34 2 -10 -6 -48 -18 -85z m-15 68 c11 -18 -42 -157
-73 -192 -15 -18 -53 -24 -65 -11 -4 3 -1 16 6 27 7 12 23 48 36 81 12 33 27
70 32 83 9 23 52 31 64 12z m105 -20 c13 -8 13 -11 1 -19 -7 -5 -10 -14 -6
-20 4 -7 1 -18 -5 -26 -7 -8 -9 -15 -5 -15 5 0 1 -8 -8 -18 -10 -10 -14 -21
-11 -24 6 -6 -20 -52 -43 -75 -13 -14 -49 -17 -57 -5 -2 4 9 39 26 77 16 39
31 78 33 89 9 41 42 57 75 36z m102 -18 c11 -11 -27 -134 -55 -175 -15 -22
-30 -32 -47 -32 -32 0 -32 13 2 95 14 36 31 79 38 97 9 24 17 31 33 27 11 -2
24 -7 29 -12z m33 -19 c-11 -62 -64 -178 -91 -204 -25 -22 -24 -21 5 26 18 28
43 87 58 133 27 87 40 107 28 45z m60 -3 c8 -12 -29 -119 -57 -166 -14 -24
-27 -34 -44 -34 -13 0 -24 2 -24 5 0 2 15 36 34 75 19 38 32 70 30 70 -3 0 2
14 11 30 15 30 38 39 50 20z"/>
<path d="M2566 827 c-9 -37 -19 -133 -13 -127 8 7 29 141 24 147 -3 2 -7 -7
-11 -20z"/>
<path d="M2664 760 c-6 -41 -10 -77 -8 -79 7 -8 25 84 22 117 -2 29 -5 21 -14
-38z"/>
<path d="M2776 763 c-4 -27 -9 -61 -11 -78 -4 -25 -3 -26 4 -9 11 24 26 134
18 134 -2 0 -8 -21 -11 -47z"/>
<path d="M2880 768 c0 -14 -3 -47 -6 -74 -4 -27 -4 -46 0 -42 12 11 25 122 15
133 -5 5 -9 -1 -9 -17z"/>
<path d="M840 807 c-41 -6 -68 -12 -60 -14 8 -1 62 3 120 11 58 8 85 14 60 14
-25 -1 -79 -5 -120 -11z"/>
<path d="M2100 804 c58 -8 112 -13 120 -11 20 4 -158 27 -196 26 -16 -1 18 -7
76 -15z"/>
<path d="M1245 750 c-4 -6 -29 -8 -60 -5 l-53 4 -4 -34 c-2 -19 0 -31 6 -28 5
4 6 -5 2 -20 -3 -15 -1 -29 5 -32 6 -4 7 -14 3 -24 -3 -9 -10 -33 -14 -53 -9
-45 5 -74 14 -30 4 16 16 38 27 48 18 16 19 16 19 -7 0 -14 -5 -30 -12 -37 -7
-7 -8 -12 -4 -12 5 0 2 -8 -5 -17 -11 -13 -11 -15 -1 -9 8 5 22 22 33 40 12
19 19 25 19 14 0 -9 -12 -31 -26 -48 -42 -49 -21 -46 33 5 l48 47 -32 13 c-63
27 -67 86 -12 156 17 21 28 39 25 39 -2 0 -8 -5 -11 -10z m-73 -102 c-17 -17
-20 -18 -25 -4 -5 11 -1 16 13 16 17 0 20 7 22 43 l1 42 4 -39 c3 -29 -1 -44
-15 -58z"/>
<path d="M1179 393 c-6 -17 -6 -35 0 -52 l9 -26 2 33 c3 41 4 45 13 60 5 7 4
12 -3 12 -6 0 -15 -12 -21 -27z"/>
</g>
</svg>
